<?xml version="1.0" standalone="no"?>
<!DOCTYPE svg PUBLIC "-//W3C//DTD SVG 20010904//EN"
 "http://www.w3.org/TR/2001/REC-SVG-20010904/DTD/svg10.dtd">
<svg version="1.0" xmlns="http://www.w3.org/2000/svg"
 width="536.000000pt" height="536.000000pt" viewBox="0 0 536.000000 536.000000"
 preserveAspectRatio="xMidYMid meet">
<metadata>
Created by potrace 1.11, written by Peter Selinger 2001-2013
</metadata>
<g transform="translate(0.000000,536.000000) scale(0.100000,-0.100000)"
fill="#000000" stroke="none">
<path d="M4202 5144 c-132 -34 -246 -121 -300 -229 -17 -33 -81 -170 -142
-305 -62 -135 -132 -287 -156 -338 -24 -51 -44 -95 -44 -97 0 -1 -25 -56 -55
-120 -55 -116 -71 -151 -125 -270 -42 -91 -70 -152 -237 -515 -86 -184 -167
-360 -180 -390 -68 -149 -265 -576 -341 -740 -47 -102 -145 -319 -218 -483
-72 -164 -134 -294 -138 -289 -6 10 -277 650 -306 723 -10 26 -28 66 -38 90
-26 58 -242 569 -354 838 -49 118 -100 236 -113 262 -49 95 -170 187 -290 220
-38 10 -136 13 -395 13 -318 0 -348 -1 -384 -19 -61 -30 -83 -95 -62 -190 5
-23 28 -76 79 -185 38 -81 83 -179 127 -275 15 -33 41 -90 59 -127 64 -138 96
-207 181 -393 48 -104 103 -224 122 -265 50 -107 84 -182 112 -243 13 -28 41
-88 61 -132 21 -44 62 -134 92 -200 31 -66 77 -166 104 -223 27 -57 49 -105
49 -106 0 -2 22 -50 49 -107 27 -57 73 -158 104 -224 30 -66 71 -156 92 -200
120 -262 163 -318 294 -383 l75 -37 332 -3 c312 -3 336 -2 390 17 68 25 116
56 179 119 46 46 91 130 265 497 103 217 151 318 205 430 32 66 79 165 105
220 26 55 76 159 110 230 75 156 184 386 294 618 24 50 67 142 96 202 29 61
69 146 90 190 21 44 60 127 88 185 27 58 108 229 180 380 71 151 153 325 182
385 165 347 231 486 270 570 21 44 61 128 89 188 28 59 73 153 100 210 26 56
67 140 89 187 78 163 76 255 -8 304 -33 20 -51 21 -380 22 -260 1 -359 -2
-398 -12z"/>
</g>
</svg>
